<svg id="Layer_1" data-name="Layer 1" xmlns="http://www.w3.org/2000/svg" viewBox="0 0 654.25 402.39"><defs><style>.cls-1{fill:none;}.cls-2{fill:#35593b;}.cls-3{fill:#36593c;}</style></defs><path class="cls-1" d="M537.26,247.38v-.08" transform="translate(-172.87 -247.3)"/><path class="cls-1" d="M575,317v-.17" transform="translate(-172.87 -247.3)"/><path class="cls-2" d="M299.68,576.85a15,15,0,0,1-13.32-7.28q-8.16-12.69-24.61-30L234,509.31q-9.09,5.77-28.21,16.19-1.72,19.47-1.72,37.91a11.28,11.28,0,0,1-4.31,9.17,17,17,0,0,1-11.06,3.51q-15.82,0-15.83-17.07,0-10.42,1.81-31.19t1.8-31.2q0-19.08.7-43.62t.71-43.38q0-5.64-.71-13.3t-.7-13.31a11.24,11.24,0,0,1,4.31-9.16,19.1,19.1,0,0,1,22.1,0A11.27,11.27,0,0,1,207.2,383q0,5.78.78,13.62t.79,13.62l-1.1,40.42q-.78,21.85-.47,43.69a423.74,423.74,0,0,0,41.07-28.62l34.48-28.5a17.1,17.1,0,0,1,22.18-.37q4.94,3.89,4.94,9,0,4.27-4.55,8.41-19.27,18.09-47.49,38.8L292,530.4q24,26.24,24,34.14,0,5-4.94,8.67A18.68,18.68,0,0,1,299.68,576.85Z" transform="translate(-172.87 -247.3)"/><path class="cls-2" d="M379.46,514.71q0,7.53.55,22.53t.55,22.53a11.21,11.21,0,0,1-4.23,9q-4.23,3.53-11.13,3.52a16.88,16.88,0,0,1-11.05-3.52,11.11,11.11,0,0,1-4.31-9q0-7.53-.55-22.53t-.55-22.53q0-11.81,1.57-29.44t1.57-29.44a11.24,11.24,0,0,1,4.31-9.16,19.1,19.1,0,0,1,22.1,0,11.27,11.27,0,0,1,4.31,9.16q0,11.81-1.57,29.44T379.46,514.71Zm-7-101.94a20.53,20.53,0,0,1-13-4.27q-5.49-4.26-5.49-10.29t5.49-10.29a20.53,20.53,0,0,1,13-4.27,20.19,20.19,0,0,1,12.93,4.27q5.42,4.26,5.41,10.29t-5.41,10.29A20.19,20.19,0,0,1,372.41,412.77Z" transform="translate(-172.87 -247.3)"/><path class="cls-2" d="M825.09,459.72l-54.23,93.9Q750.79,587.9,740.13,611l-10.34,24.35q-4.08,9-14.11,9a18.87,18.87,0,0,1-11.36-3.45q-4.79-3.45-4.78-8.6,0-12.55,33.85-72.68l-56.11-86.49-7-9.17q-4.23-5.78-4.24-9.67,0-5.15,4.94-9a17.39,17.39,0,0,1,11.05-3.9q7.21,0,11.13,4.4,26.64,29.63,57.21,84.36l23.2-43.31a409.13,409.13,0,0,1,24.14-38.67q5-7,13.17-7a18.68,18.68,0,0,1,11.36,3.64q4.93,3.64,4.94,8.67A12.81,12.81,0,0,1,825.09,459.72Z" transform="translate(-172.87 -247.3)"/><path class="cls-2" d="M665.13,561.58c.83-16.86-2.55-33.58-7.4-49.65-2.31-7.64-5-15.16-7.7-22.65-4.25-11.63-11-20-19.85-28.56-7.84-7.63-16.38-14.78-26.31-19.37a55.72,55.72,0,0,0-31.19-4.83c-7.07,1-14,3.69-19.42,8.39a33.39,33.39,0,0,0-6.42,7.65c-1.73,2.79-2.16,5.21-5.54,6.24-3.76,1.15-7.52,2.32-11.24,3.6a74.08,74.08,0,0,0-14.54,6.51,45.94,45.94,0,0,0-11.38,10.34c-5.61,6.8-9.64,14.82-9.86,23.77a34,34,0,0,0,5.35,19.05,40.9,40.9,0,0,0,12.63,12.18c5.25,3.35,11.13,5.24,16.58,8.17,3.38,1.83,1.84,3.45,1,7.58-.6,3-1.15,6-1.62,9-.56,3.63-1,7.51.61,10.83,2.33,4.89,8.21,7,13.6,7.47l.44,0c4,.3,8.23-.16,11.23-2.75s4.1-6.82,5-10.75c4.07-17.87,8.16-35.88,8.64-54.21.34-12.9-1.07-26.16,2.86-38.46.94-3,2.31-6,4.83-7.82,3.32-2.43,7.87-2.26,11.88-1.33,10.81,2.51,20.08,9.63,27.39,18a89.19,89.19,0,0,1,20.35,73.39c-.72,4-1.71,7.95-1.66,12s1.33,8.28,4.41,10.9,7.42,3.2,11.47,3.15c3.32,0,6.79-.47,9.55-2.34C663.64,573.89,664.84,567.39,665.13,561.58ZM537.84,490a5.29,5.29,0,0,1,.29,2,137.22,137.22,0,0,1-1.48,22.64,6.12,6.12,0,0,1-.77,2.53c-2,3-7.91.59-10.22-.92a12.62,12.62,0,0,1-5.32-8.52,17.59,17.59,0,0,1,.84-9.64,15.24,15.24,0,0,1,7.79-8c2-.91,7.37-3,8.78-.28Z" transform="translate(-172.87 -247.3)"/><path class="cls-2" d="M484.5,390.51c0-22.2-15.53-40.2-34.69-40.2s-34.69,18-34.69,40.2c0,16.55,8.64,30.76,21,36.92q-.8,25.53-.79,45.35,0,15.2-1.72,45.63T431.86,564q0,12.81,15.37,12.81,13.78,0,15.36-12.56,1.25-19.2,1.25-29.12l2.35-62.39q0-19.83.79-45.38c0-.68,0-1.34,0-2C477.47,418.46,484.5,405.44,484.5,390.51Z" transform="translate(-172.87 -247.3)"/><path class="cls-3" d="M270.77,637.38a5.15,5.15,0,0,0-3.31-1.11,7.31,7.31,0,0,0-2.23.6l-6,2.32a20.81,20.81,0,0,1-6.62,1.19q-6.84,0-11.18-2.65-4.67-2.84-4.66-7.77,0-4.56,4.71-10.8,5.18-6.79,10.45-6.79,6.94,0,10,1.75c.69.43,1.41.85,2.15,1.29a5,5,0,0,0,2.61.65,4.74,4.74,0,0,0,3.21-1.1,3.25,3.25,0,0,0,1.3-2.52q0-3.18-7.92-5.38a43.56,43.56,0,0,0-11.34-1.72q-9.72,0-17.49,9-7,8.07-7,15.65,0,8,7.46,12.81,7.08,4.63,17.7,4.64a39.67,39.67,0,0,0,11.59-2.24q8-2.55,8-5.27A3.17,3.17,0,0,0,270.77,637.38Z" transform="translate(-172.87 -247.3)"/><path class="cls-3" d="M328,634a3.16,3.16,0,0,0-3,.8,18.06,18.06,0,0,1-3,2.44,24.05,24.05,0,0,1-5.82,1.78,42.94,42.94,0,0,1-8.38,1,29.38,29.38,0,0,1-10.07-1.57,18.1,18.1,0,0,1-7.22-4.67c.16.17,3-1,3.21-1.1l7.17-2.45a108.55,108.55,0,0,0,10.71-3.74c2.82-1.3,6.38-3.38,7.45-6.49a7.28,7.28,0,0,0,0-4.43c-1-3.46-3.24-5.6-6.38-7.17a22.39,22.39,0,0,0-4.44-1.85c-7.3-1.84-15.59,1.44-20.75,6.65A22.2,22.2,0,0,0,281,629.48q0,8.4,7.91,13.07,7.25,4.22,18.95,4.22a46,46,0,0,0,9.79-1.06,43.16,43.16,0,0,0,9.47-2.8,8.84,8.84,0,0,0,2.32-1.49,4.06,4.06,0,0,0,1.28-2.38,5.54,5.54,0,0,0-.92-3.2A3.66,3.66,0,0,0,328,634Zm-36.31-12.95a17.06,17.06,0,0,1,9.63-7.67,9.68,9.68,0,0,1,5-.33,4.29,4.29,0,0,1,2.79,2.25,5.18,5.18,0,0,1,.43,4.12c-.55,1.25-2.09,1.57-3.28,1.85a58.87,58.87,0,0,0-7.07,2.41c-2,.76-4.53,2.13-6.68,1.38a2.24,2.24,0,0,1-1.37-1.2A3.24,3.24,0,0,1,291.73,621.07Z" transform="translate(-172.87 -247.3)"/><path class="cls-3" d="M380.86,615.23a13.92,13.92,0,0,0-2.63-4.47c-2.81-3.2-6.56-4.42-10.68-4.8a35.16,35.16,0,0,0-14.49,1.28,17.46,17.46,0,0,0-7.6,4.59c-3.37,3.74-3.71,8.73-3.73,13.52,0,5.61,0,11.2,0,16.8v1.63c0,2.52,1.51,3.78,4.55,3.78,3.42,0,5.12-1.26,5.12-3.78q0-7.89-.07-15.78a29.79,29.79,0,0,1,.4-6.19,11.59,11.59,0,0,1,4.42-7.11,10.51,10.51,0,0,1,4.93-1.4c1.9-.17,3.7-.59,5.58,0a7.55,7.55,0,0,1,4.18,3.13c.7,1.13,1.09,2.44,1.79,3.57a4.44,4.44,0,0,0,4.14,2.17c1.59-.06,3.55-.55,4.51-1.91a3.51,3.51,0,0,0,.29-2.68A16.4,16.4,0,0,0,380.86,615.23Z" transform="translate(-172.87 -247.3)"/><path class="cls-3" d="M432.2,627.88a56.16,56.16,0,0,1,.4-7.56c.23-2.09,1.16-4.48.76-6.57a5.71,5.71,0,0,0-1.21-2.39,12.71,12.71,0,0,0-7.42-4.34,32.16,32.16,0,0,0-7.44-1,33.51,33.51,0,0,0-20.58,6.43q-8.61,6.42-8.61,15.46,0,9.57,5.22,14.2,5.55,4.93,17.65,4.93a25.85,25.85,0,0,0,6.32-1c1.52-.4,3-.91,4.48-1.45,1.15-.42,2.53-1.22,3.78-1.19a4.12,4.12,0,0,1,2.53,1.24,9.36,9.36,0,0,0,4.8,2.72l.2,0c1.74.17,4.73-.82,4.75-3a3.19,3.19,0,0,0-.67-1.69A29.59,29.59,0,0,1,432.2,627.88ZM422.88,636c-1.91,4.43-8.52,4.53-12.58,4.53s-7-1-9-3.06-3-5.11-3-9.19,1.94-7.74,5.83-10.89A21.27,21.27,0,0,1,418,612.66a4.43,4.43,0,0,1,4.57,3.14,9.15,9.15,0,0,1,0,3c-.09.91-.15,1.84-.17,2.76a48.88,48.88,0,0,0,.83,9.27A9.35,9.35,0,0,1,422.88,636Z" transform="translate(-172.87 -247.3)"/><path class="cls-3" d="M512,612.66q-3.17-6.72-11.8-6.72a27.66,27.66,0,0,0-9,1.36,18.5,18.5,0,0,0-6.78,4.09q-3.06-5.82-11.18-5.82c-3.9,0-8.06,2.15-11.43,3.95a31.73,31.73,0,0,0-9.66,7.59c-5.09,6.19-7.12,16-5.85,23.79a8.65,8.65,0,0,0,1.65,4.27,6,6,0,0,0,6.84,1.21c2.46-1.17,2.34-3.46,1.87-5.77-.66-3.31-.14-6.47.14-9.78.27-3.12.87-5.93,2.88-8.43a32,32,0,0,1,6.37-5.48c2.22-1.6,6.47-5,8.36-1.09a7.44,7.44,0,0,1,.55,3.31,94.61,94.61,0,0,0,1.26,13.42,103.61,103.61,0,0,1,1.27,13.35,3.24,3.24,0,0,0,1.42,2.71,6.76,6.76,0,0,0,7.3,0,3.24,3.24,0,0,0,1.42-2.71,62.25,62.25,0,0,0-1-9.75c-.51-3.26-.94-6.47-1.61-9.71a9.36,9.36,0,0,1,.32-6.06c1-2,3-2.94,4.83-4a28.41,28.41,0,0,1,6.45-2.73,4.69,4.69,0,0,1,2.79-.16,4.57,4.57,0,0,1,2.16,2c3.28,5.13,3.36,11.93,4.26,17.81q.93,7.47,1.86,11.58.72,3.26,5,3.25a6.68,6.68,0,0,0,3.78-1,2.65,2.65,0,0,0,1.39-2.54q-2.28-15-3.72-21.41Q512.57,614,512,612.66Z" transform="translate(-172.87 -247.3)"/><path class="cls-3" d="M543.39,590.36a7.23,7.23,0,0,0-4.27-1.27,7.35,7.35,0,0,0-4.3,1.27,3.5,3.5,0,0,0,0,6.13,7.28,7.28,0,0,0,4.3,1.27,7.16,7.16,0,0,0,4.27-1.27,3.53,3.53,0,0,0,0-6.13Z" transform="translate(-172.87 -247.3)"/><path class="cls-3" d="M541.06,607.85a6.87,6.87,0,0,0-7.3,0,3.21,3.21,0,0,0-1.42,2.72c0,2.34-.18,5.26-.52,8.76s-.52,6.42-.52,8.76c0,1.5.06,3.73.18,6.71s.18,5.21.18,6.7a3.19,3.19,0,0,0,1.43,2.69,6.9,6.9,0,0,0,7.32,0,3.21,3.21,0,0,0,1.4-2.69c0-1.49-.06-3.73-.18-6.7s-.19-5.21-.19-6.71c0-2.34.18-5.26.52-8.76s.52-6.42.52-8.76A3.21,3.21,0,0,0,541.06,607.85Z" transform="translate(-172.87 -247.3)"/><path class="cls-3" d="M600.5,637.38a5.18,5.18,0,0,0-3.32-1.11,7.2,7.2,0,0,0-2.22.6l-6,2.32a20.76,20.76,0,0,1-6.62,1.19q-6.83,0-11.18-2.65-4.65-2.84-4.66-7.77,0-4.56,4.71-10.8,5.17-6.79,10.46-6.79,6.93,0,10,1.75c.69.43,1.4.85,2.14,1.29a5.07,5.07,0,0,0,2.62.65,4.78,4.78,0,0,0,3.21-1.1,3.24,3.24,0,0,0,1.29-2.52q0-3.18-7.92-5.38a43.43,43.43,0,0,0-11.33-1.72q-9.74,0-17.49,9-7,8.07-7,15.65,0,8,7.45,12.81,7.1,4.63,17.7,4.64a39.62,39.62,0,0,0,11.59-2.24q8-2.55,8-5.27A3.16,3.16,0,0,0,600.5,637.38Z" transform="translate(-172.87 -247.3)"/><path class="cls-3" d="M646.25,625.82a26.72,26.72,0,0,0-7.45-3.33,54.79,54.79,0,0,0-12.11-2.24c-1-.07-2.16-.2-2.73-1a2.25,2.25,0,0,1,.28-2.59c1.64-2,5-2.78,7.44-3.37,4.33-1.06,8.73-1.71,12.71.81,1.28.81,2.46,1.88,3.93,2.18h.06c4.37.82,6.12-5,2.57-7.25-4.93-3.1-12-3.93-17.71-3.45-7.72.66-20.74,3.57-20.74,13.42,0,2.81,1.4,4.92,4.2,6.31q2.89,1.46,9.78,2.54l5.38.86q9.82,1.8,9.83,6.87,0,2.36-4.81,3.44a34.93,34.93,0,0,1-7.66.75,46.67,46.67,0,0,1-5.85-.45c-2.9-.37-4.76-.85-5.59-1.42a7.86,7.86,0,0,0-4.14-1.79,6.36,6.36,0,0,0-3.7,1.12,3.16,3.16,0,0,0-1.63,2.61q0,3.73,8,5.83a49.83,49.83,0,0,0,12.94,1.64q9.25,0,15.32-2.54c5.1-2.16,8.86-7,6.8-12.69A13.23,13.23,0,0,0,646.25,625.82Z" transform="translate(-172.87 -247.3)"/></svg>